<?xml version="1.0" encoding="UTF-8" standalone="no"?>
<!-- Generator: Adobe Illustrator 17.0.0, SVG Export Plug-In . SVG Version: 6.00 Build 0)  -->

<svg
   xmlns:dc="http://purl.org/dc/elements/1.1/"
   xmlns:cc="http://creativecommons.org/ns#"
   xmlns:rdf="http://www.w3.org/1999/02/22-rdf-syntax-ns#"
   xmlns:svg="http://www.w3.org/2000/svg"
   xmlns="http://www.w3.org/2000/svg"
   xmlns:sodipodi="http://sodipodi.sourceforge.net/DTD/sodipodi-0.dtd"
   xmlns:inkscape="http://www.inkscape.org/namespaces/inkscape"
   version="1.1"
   id="Layer_1"
   x="0px"
   y="0px"
   width="26px"
   height="26px"
   viewBox="0 0 26 26"
   enable-background="new 0 0 26 26"
   xml:space="preserve"
   inkscape:version="0.48.5 r10040"
   sodipodi:docname="icon3.svg"
   inkscape:export-filename="D:\personal\code\OfflineBookshelfBrowser_androidstudio\app\src\main\res\drawable-xhdpi\icon3.png"
   inkscape:export-xdpi="1772.3101"
   inkscape:export-ydpi="1772.3101"><metadata
   id="metadata9"><rdf:RDF><cc:Work
       rdf:about=""><dc:format>image/svg+xml</dc:format><dc:type
         rdf:resource="http://purl.org/dc/dcmitype/StillImage" /><dc:title></dc:title></cc:Work></rdf:RDF></metadata><defs
   id="defs7" /><sodipodi:namedview
   pagecolor="#ffffff"
   bordercolor="#666666"
   borderopacity="1"
   objecttolerance="10"
   gridtolerance="10"
   guidetolerance="10"
   inkscape:pageopacity="0"
   inkscape:pageshadow="2"
   inkscape:window-width="1304"
   inkscape:window-height="746"
   id="namedview5"
   showgrid="false"
   inkscape:zoom="9.0769231"
   inkscape:cx="12.118644"
   inkscape:cy="28.848611"
   inkscape:window-x="-8"
   inkscape:window-y="-8"
   inkscape:window-maximized="1"
   inkscape:current-layer="Layer_1" />
<rect
   style="fill:#ffffff;stroke:#000000;stroke-width:0.01040338000000000;stroke-miterlimit:4;stroke-opacity:1;stroke-dasharray:none;fill-opacity:1"
   id="rect3756"
   width="58.395847"
   height="28.485634"
   x="-9.7009287"
   y="-0.80245155"
   inkscape:export-xdpi="1575.34"
   inkscape:export-ydpi="1575.34"
   inkscape:export-filename="D:\personal\code\OfflineBookshelfBrowser_androidstudio\app\src\main\res\drawable-xhdpi\rect3756.png" /><path
   d="M8.984,11.157v9.558c0,0.425-0.268,0.803-0.668,0.943c-0.566,0.199-1.249,0.304-1.976,0.304c0,0,0,0,0,0  C4.249,21.962,2,21.104,2,19.22V6.99C1.953,6.15,2.246,4.666,3.653,3.863C4.306,3.49,7.735,1.285,9.457,0.171  c0.307-0.199,0.699-0.213,1.021-0.039C10.8,0.308,11,0.645,11,1.011v1.448c0,0.552-0.448,1-1,1c-0.43,0-0.797-0.271-0.938-0.653  c-1.556,1-3.848,2.468-4.417,2.793C4.133,5.892,4.022,6.43,4,6.722C4,7.05,4.071,7.308,4.199,7.449  C4.554,7.836,5.737,7.595,7.028,6.82c1.24-0.744,7.356-4.816,7.417-4.857c0.309-0.205,0.703-0.224,1.026-0.049  C15.797,2.088,16,2.427,16,2.796V2.91c0,0.334-0.167,0.646-0.444,0.832c0,0-4.246,2.834-4.622,3.075  C9.495,7.743,8.984,8.879,8.984,11.157z M24,6.331v12.982c0,0.343-0.177,0.663-0.468,0.846c0,0-5.83,4.528-7.013,5.247  c-0.622,0.379-1.414,0.579-2.289,0.579c-2.079,0-4.23-1.125-4.23-3.006V10.863V10.57c0-0.004,0.003-0.008,0.003-0.013  c0.02-0.732,0.191-1.777,1.552-2.781c0.816-0.602,5.676-3.916,5.882-4.056c0.307-0.208,0.704-0.23,1.03-0.058  C18.795,3.835,19,4.175,19,4.546v1.448c0,0.552-0.447,1-1,1c-0.413,0-0.768-0.25-0.92-0.608c-1.551,1.061-3.828,2.624-4.338,2.999  c-0.644,0.476-0.73,0.79-0.741,1.193c0.002,0.299,0.083,0.527,0.247,0.677c0.51,0.467,1.883,0.271,3.237-0.541  c1.002-0.602,5.32-3.936,6.898-5.17c0.303-0.234,0.711-0.277,1.055-0.11S24,5.948,24,6.331z M22,10.787l-5,3.879v2l5-3.879V10.787z"
   id="path3" />
<rect
   style="fill:none;fill-opacity:1;stroke:none"
   id="rect2986"
   width="54.012169"
   height="33.381355"
   x="-2.4237287"
   y="-1.9830508" /></svg>